<svg width="271" height="233" viewBox="0 0 271 233" fill="none" xmlns="http://www.w3.org/2000/svg">
<path d="M199.649 92.6228C185.499 108.472 166.661 110.268 162.067 107.841C132.562 92.2605 146.318 46.6646 152.803 34.4004C159.288 22.1362 181.115 1.86182 203.203 16.6989C225.292 31.5361 217.338 72.8114 199.649 92.6228Z" fill="#47B2FF"/>
<path d="M65.7314 177.67C78.0857 166.064 88.9738 149.124 92.8735 142.104C117.208 92.4996 150.901 111.686 161.197 131.809C171.492 151.931 189.275 171.118 198.634 177.67C207.993 184.221 223.436 202.004 217.821 216.511C212.205 231.018 197.23 235.697 167.28 224.466C137.33 213.235 120.484 219.787 106.444 224.466C92.4055 229.146 59.6478 240.845 47.9486 224.466C36.2495 208.087 50.2885 192.177 65.7314 177.67Z" fill="#47B2FF"/>
<path d="M28.1196 160.757C43.7758 172.245 60.8245 170.157 64.4195 167.07C87.5071 147.241 66.3546 108.894 58.1968 99.1271C50.0389 89.3602 26.7097 75.3979 10.049 93.099C-6.61157 110.8 8.54936 146.398 28.1196 160.757Z" fill="#47B2FF"/>
<path d="M237.8 161.369C221.571 171.42 204.872 168.179 201.526 164.922C180.044 144.006 203.49 108.239 212.198 99.3264C220.907 90.4137 244.879 78.5025 260.155 96.8927C275.432 115.283 258.086 148.804 237.8 161.369Z" fill="#47B2FF"/>
<path d="M123.052 77.2679C118.065 96.812 103.005 106.395 98.0825 106.293C66.4721 105.642 58.1529 60.9395 58.2575 47.725C58.362 34.5105 67.8756 7.91684 92.9241 11.1059C117.973 14.295 129.287 52.8379 123.052 77.2679Z" fill="#47B2FF"/>
</svg>
